<svg xmlns="http://www.w3.org/2000/svg" viewBox="0 0 224 256" width="224" height="256">
	<style>
		tspan { white-space:pre }
		.shp0 { fill: #ffba08 } 
		.shp1 { fill: #d00000 } 
		.shp2 { fill: #c15001 } 
	</style>
	<g id="Background">
		<path id="Path 0" class="shp0" d="M1.57 3.25C1.16 5.39 2.47 13.47 5.44 27C7.91 38.28 10.66 50.88 11.55 55C12.45 59.13 14.09 66.33 15.2 71C16.31 75.67 17.42 80.85 17.67 82.5C17.93 84.15 18.96 89.1 19.96 93.5C20.97 97.9 22.77 106 23.96 111.5C25.16 117 27.22 126.45 28.54 132.5C29.87 138.55 32.1 148.9 33.5 155.5C34.9 162.1 36.67 170.2 37.43 173.5C38.2 176.8 39.53 182.65 40.4 186.5C41.27 190.35 42.9 198.22 44.03 204C45.16 209.78 46.63 214.79 47.29 215.15C47.96 215.51 52.77 214 58 211.8C63.22 209.6 71.55 205.73 76.5 203.2C81.45 200.67 91.8 195.02 99.5 190.64C107.2 186.25 116.65 180.65 120.5 178.19C124.35 175.73 133.8 169.2 141.5 163.68C149.2 158.16 160.45 149.5 166.5 144.44C172.55 139.37 179.69 133.04 182.36 130.37C187.07 125.65 187.16 125.45 185.36 123.71C184.34 122.73 175.4 116.55 165.5 109.97C155.6 103.39 144.8 96.16 141.5 93.89C138.2 91.62 127.63 84.43 118 77.92C108.38 71.41 93.3 61.11 84.5 55.02C75.7 48.94 67.83 43.67 67 43.32C66.17 42.96 63.92 41.46 62 39.99C60.08 38.52 50.63 31.97 41 25.44C31.38 18.91 20.13 11.18 16 8.25C11.88 5.33 7.71 2.73 6.75 2.47C5.79 2.21 5 1.55 5 1C5 0.45 4.37 0 3.59 0C2.8 0 1.92 1.42 1.57 3.25Z" />
		<path id="Path 1" class="shp1" d="M48.89 50.03C47.02 50.37 44.15 51.36 42.5 52.23C40.85 53.11 38.29 55.1 36.8 56.66C35.32 58.22 33.41 61.19 32.55 63.25C31.7 65.31 31.01 68.69 31.02 70.75C31.03 72.81 31.86 76.3 32.86 78.5C33.85 80.7 36.09 83.96 37.83 85.75C39.67 87.63 43 89.58 45.75 90.37C48.36 91.13 52.52 91.57 55 91.36C57.48 91.14 61.41 89.85 63.75 88.48C66.09 87.12 69.24 84.12 70.75 81.82C72.82 78.67 73.58 76.13 73.83 71.57C74.09 66.66 73.7 64.64 71.75 61C70.43 58.52 67.58 55.26 65.42 53.75C63.27 52.24 59.42 50.65 56.89 50.21C54.35 49.77 50.75 49.69 48.89 50.03ZM112 98.25C110.08 98.95 107.26 100.31 105.75 101.26C104.24 102.22 101.77 104.91 100.28 107.25C98.67 109.76 97.4 113.34 97.17 116C96.96 118.47 97.26 122.3 97.84 124.5C98.42 126.7 100.49 130.19 102.45 132.25C104.4 134.31 107.69 136.69 109.75 137.52C111.81 138.36 115.86 139.04 118.75 139.02C121.9 139.01 125.5 138.23 127.75 137.09C129.81 136.04 132.71 133.9 134.2 132.34C135.68 130.78 137.59 127.81 138.45 125.75C139.3 123.69 140.01 120.54 140.02 118.75C140.03 116.96 139.51 113.92 138.86 112C138.22 110.08 136.86 107.26 135.85 105.75C134.83 104.24 132.09 101.88 129.75 100.51C127.41 99.14 123.25 97.79 120.5 97.5C117.58 97.19 114.04 97.51 112 98.25Z" />
		<path id="Path 2" class="shp2" d="M190 123C187.53 124.04 185.92 124.91 186.44 124.94C186.96 124.97 185.16 127.3 182.44 130.12C179.72 132.93 172.55 139.37 166.5 144.44C160.45 149.5 149.2 158.16 141.5 163.68C133.8 169.2 124.35 175.73 120.5 178.19C116.65 180.65 107.2 186.25 99.5 190.64C91.8 195.02 81.45 200.67 76.5 203.2C71.55 205.73 63.11 209.64 57.75 211.9C52.39 214.15 47.78 215.66 47.51 215.25C47.23 214.84 46.06 215.4 44.9 216.5C43.74 217.6 41.62 220.53 40.19 223C38.11 226.61 37.64 228.64 37.8 233.25C37.91 236.41 38.67 240.24 39.48 241.75C40.3 243.26 41.99 245.7 43.23 247.16C44.48 248.63 47.75 250.58 50.5 251.49C54.69 252.88 56.63 252.98 62.5 252.09C66.35 251.5 70.4 250.84 71.5 250.61C72.6 250.38 75.53 249.44 78 248.51C80.47 247.58 83.4 246.46 84.5 246.03C85.6 245.6 90.55 243.56 95.5 241.5C100.45 239.44 105.4 237.13 106.5 236.37C107.6 235.61 109.06 234.99 109.75 234.99C110.44 235 112.91 233.79 115.25 232.31C117.59 230.83 121.53 228.64 124 227.44C126.47 226.24 136.38 220.2 146 214.01C155.63 207.82 165.53 201.11 168 199.08C170.47 197.06 174.07 194.31 176 192.98C177.93 191.65 180.63 189.55 182 188.31C183.38 187.08 187.19 183.69 190.48 180.78C193.77 177.88 200.07 171.77 204.48 167.22C208.89 162.66 214.2 156.14 216.27 152.72C219.48 147.42 220.03 145.65 220.02 140.75C220.01 137.59 219.37 133.76 218.59 132.25C217.81 130.74 215.9 128.33 214.34 126.9C212.78 125.47 209.59 123.56 207.25 122.65C204.91 121.74 201.09 121.03 198.75 121.06C196.41 121.09 192.47 121.96 190 123Z" />
		<path id="Path 3" class="shp1" d="M59.5 154.86C57.3 155.86 54.13 158.21 52.44 160.09C50.76 161.96 48.79 165.3 48.06 167.5C47.28 169.88 46.96 173.52 47.29 176.5C47.65 179.76 48.84 182.89 50.72 185.5C52.3 187.7 55.59 190.62 58.04 191.98C61.41 193.86 63.97 194.47 68.5 194.47C73.03 194.47 75.59 193.86 78.96 191.98C81.41 190.62 84.7 187.7 86.28 185.5C88.16 182.89 89.35 179.76 89.71 176.5C90.04 173.52 89.72 169.88 88.94 167.5C88.21 165.3 86.24 161.98 84.56 160.12C82.87 158.26 79.81 155.9 77.75 154.87C75.49 153.74 71.92 153.01 68.75 153.02C65.86 153.03 61.7 153.86 59.5 154.86Z" />
	</g>
</svg>